<svg width="563" height="112" viewBox="0 0 563 112" fill="none" xmlns="http://www.w3.org/2000/svg">
<path d="M90.4568 6.35163C75.4639 -0.685972 57.8836 -1.86863 42.0427 2.77025L17.637 27.2463L90.5024 100.322L122.835 67.8957C124.681 46.5666 110.839 15.9185 90.4568 6.35163Z" fill="#D5AEE0"/>
<path d="M37.274 26.5481C37.274 19.1507 38.9765 10.8263 42.043 2.77002C38.7467 3.73516 35.5716 4.93377 32.5501 6.352C13.1806 15.4435 2.20359e-08 43.2988 2.20359e-08 63.9302C-0.000899453 93.7531 27.5349 108 61.5021 108C93.9265 108 120.489 95.0157 122.836 67.8955C90.6116 75.8372 37.2737 68.3624 37.274 26.5481Z" fill="#CC8EDF"/>
<path d="M27.4423 48.7869C20.6475 48.7869 15.1391 53.1679 15.1391 58.5725C15.1391 63.977 20.6472 68.3584 27.4423 68.3587C34.2371 68.3587 39.7458 63.9773 39.7455 58.5725C39.7458 53.1682 34.2371 48.7869 27.4423 48.7869Z" fill="#FF8E9E"/>
<path d="M94.4738 48.7869C87.679 48.7869 82.1706 53.1679 82.1706 58.5725C82.1706 63.977 87.679 68.3587 94.4738 68.3587C101.269 68.3587 106.777 63.9773 106.777 58.5728C106.777 53.1679 101.269 48.7869 94.4738 48.7869Z" fill="#FF8E9E"/>
<path d="M31.4331 43.8419L31.4331 48.9474C31.4331 50.7098 32.8577 52.1386 34.6148 52.1383C36.3724 52.138 37.7967 50.7095 37.7967 48.9471L37.7967 43.8416C37.7967 42.0792 36.3721 40.6505 34.6151 40.6508C32.8577 40.6508 31.4334 42.0792 31.4331 43.8419Z" fill="#313D40"/>
<path d="M87.6467 40.6501C85.889 40.6504 84.4647 42.0789 84.4647 43.8413V48.9468C84.4647 50.7092 85.8893 52.138 87.6463 52.1377C89.404 52.1374 90.8283 50.7089 90.8283 48.9465L90.8283 43.841C90.8283 42.0792 89.4034 40.6501 87.6467 40.6501Z" fill="#313D40"/>
<path d="M65.2929 46.6904C62.863 49.4853 58.5464 49.4832 56.1207 46.6907C54.9661 45.3618 52.9561 45.2234 51.6314 46.3811C50.3087 47.5439 50.1683 49.5549 51.3227 50.8834C56.2968 56.6078 65.1411 56.5813 70.0903 50.8837C71.2447 49.5552 71.107 47.5397 69.7823 46.3814C68.4575 45.2231 66.4455 45.363 65.2929 46.6904Z" fill="#313D40"/>
<path d="M184.5 25.6C193.567 25.6 200.733 26.8666 206 29.4C211.333 31.8666 215.367 34.6333 218.1 37.6999C220.3 40.2333 222.1 43.1666 223.5 46.5C224.9 49.7666 225.6 53.6999 225.6 58.2999C225.6 61.7 224.833 65.2666 223.3 69C221.767 72.6666 219.767 75.6333 217.3 77.9C214.7 80.3666 212.233 82.3666 209.9 83.9C207.633 85.4333 204.533 86.7 200.6 87.7C196.733 88.6333 191.8 89.1 185.8 89.1C181.267 89.1 177.167 88.6 173.5 87.6C169.833 86.5333 168 84.7666 168 82.3C168 81.3 168.433 80.5333 169.3 80C170.233 79.4 171.233 79.1 172.3 79.1C172.9 79.1 173.3 79.1333 173.5 79.2C173.967 74.7999 174.2 70.1333 174.2 65.2C174.2 59.6666 174.067 55.0999 173.8 51.4999C173.533 47.8333 173.167 44.2 172.7 40.6C172.633 40.1333 172.467 38.8333 172.2 36.7C172 34.5666 171.9 32.4 171.9 30.2C171.9 28.8 172.6 27.6333 174 26.6999C175.4 25.7 176.833 25.2 178.3 25.2C179.167 25.2 180.333 25.2666 181.8 25.3999C183 25.5333 183.9 25.6 184.5 25.6ZM183.2 79.7C184.8 79.9666 186.9 80.1 189.5 80.1C193.9 80.1 198.067 79.2 202 77.4C205.933 75.5333 209.1 72.9666 211.5 69.7C213.9 66.3666 215.1 62.5333 215.1 58.2C215.1 53.6666 214.3 49.8 212.7 46.6C211.1 43.4 208.633 40.7666 205.3 38.6999C202.833 37.1666 199.8 36.0666 196.2 35.4C192.6 34.6666 188.267 34.2999 183.2 34.2999C183.2 35.9 183.3 37.9 183.5 40.3C183.5 41.1 183.567 42.4999 183.7 44.4999C184.1 52.2333 184.3 58.4666 184.3 63.2C184.3 70.0666 183.933 75.5666 183.2 79.7Z" fill="#ECEFF3"/>
<path d="M280.011 84.2C280.011 85.6666 279.211 86.9 277.611 87.9C276.078 88.9 274.644 89.4 273.311 89.4C270.778 89.4 268.744 89.1 267.211 88.5C265.744 87.8333 264.378 86.6333 263.111 84.9C261.378 86.4333 259.011 87.6 256.011 88.4C253.011 89.1333 250.244 89.5 247.711 89.5C243.578 89.5 240.178 88.4 237.511 86.2C234.844 83.9333 233.511 80.6333 233.511 76.3C233.511 74.4333 234.011 72.7333 235.011 71.2C236.011 69.6 237.378 68.2 239.111 67C241.044 65.7333 243.244 64.7666 245.711 64.1C248.178 63.3666 250.744 62.9999 253.411 62.9999C254.811 62.9999 256.478 63.2666 258.411 63.7999C260.344 64.3333 261.844 64.9 262.911 65.5V63.8999C262.911 60.2999 262.044 57.8333 260.311 56.5C258.578 55.1 255.778 54.4 251.911 54.4C250.778 54.4 249.644 54.6333 248.511 55.1C247.444 55.5666 246.211 56.1999 244.811 56.9999C242.944 58 241.178 58.5 239.511 58.5C238.911 58.5 238.344 58.0999 237.811 57.2999C237.278 56.4333 237.011 55.6666 237.011 55C237.011 53.0666 237.911 51.4 239.711 50C241.578 48.6 243.778 47.5666 246.311 46.9C248.844 46.1666 251.111 45.8 253.111 45.8C255.111 45.8 257.411 46.2 260.011 47C262.611 47.7333 264.744 48.7666 266.411 50.1C268.411 51.8333 269.944 53.8666 271.011 56.2C272.144 58.4666 272.711 60.9666 272.711 63.7C272.711 64.5666 272.644 65.8666 272.511 67.6C272.378 69.4666 272.311 71.0666 272.311 72.4C272.311 73 272.244 73.9 272.111 75.1C271.978 76.5666 271.911 77.7333 271.911 78.6C271.911 79.4 272.211 80.1 272.811 80.7C273.411 81.2333 274.111 81.5 274.911 81.5L277.711 81.4C278.444 81.4 279.011 81.6666 279.411 82.2C279.811 82.7333 280.011 83.4 280.011 84.2ZM247.811 81.6C250.678 81.6 253.078 81.2999 255.011 80.7C256.944 80.1 259.278 79 262.011 77.4C262.278 76.2666 262.444 74.7666 262.511 72.9C258.844 71.1666 255.811 70.3 253.411 70.3C250.678 70.3 248.244 70.8 246.111 71.8C243.978 72.8 242.911 74.5666 242.911 77.1C242.911 78.3666 243.444 79.4333 244.511 80.3C245.578 81.1666 246.678 81.6 247.811 81.6Z" fill="#ECEFF3"/>
<path d="M332.259 81.3C332.593 81.4333 333.126 81.6 333.859 81.8C334.593 82 335.126 82.2 335.459 82.4C335.793 82.6 335.959 82.9 335.959 83.3C336.026 84.9 335.426 86.2333 334.159 87.3C332.959 88.3 331.526 88.8 329.859 88.8C327.259 88.8 325.226 88.1 323.759 86.7C322.293 85.2999 321.226 83.1666 320.559 80.3C320.293 79.1666 320.159 77.6 320.159 75.6C320.159 74.4666 320.226 72.6333 320.359 70.1C320.493 67.4333 320.559 65.2999 320.559 63.7C320.559 61.3666 319.893 59.3333 318.559 57.6C317.293 55.8 315.493 54.9 313.159 54.9C311.759 54.9 310.293 55.3333 308.759 56.2C307.226 57 306.159 58 305.559 59.2C304.559 61.1333 303.859 63.2333 303.459 65.5C302.726 69.5 302.359 73.6666 302.359 78C302.359 80.0666 302.393 81.6666 302.459 82.8C302.459 83.0666 302.459 83.6 302.459 84.4C302.526 85.1333 302.459 85.8333 302.259 86.5C302.126 87.1 301.859 87.6666 301.459 88.2C301.126 88.5333 300.593 88.8 299.859 89C299.193 89.2666 298.559 89.4 297.959 89.4C297.026 89.4 295.859 89 294.459 88.2C293.059 87.4 292.259 86.5 292.059 85.5L291.959 83.8C291.959 83.2 292.026 82.5 292.159 81.7C292.959 77.0333 293.359 72.9666 293.359 69.5C293.359 67.9666 293.326 66.7666 293.259 65.8999L293.159 61.2C293.159 59.6 292.759 58.0666 291.959 56.6C291.159 55.0666 290.226 54.3 289.159 54.3C288.826 54.3 288.359 54.4333 287.759 54.6999C287.159 54.9 286.659 55 286.259 55C285.593 55 284.859 54.6666 284.059 53.9999C283.326 53.3333 282.959 52.6333 282.959 51.9C282.959 50.5 283.426 49.3666 284.359 48.4999C285.359 47.6999 286.326 47.0666 287.259 46.6C288.259 46.1333 289.393 45.9 290.659 45.9C291.726 45.9 292.593 46 293.259 46.1999C293.926 46.4 294.826 46.8333 295.959 47.4999C296.559 47.8333 297.259 48.5666 298.059 49.7C298.859 50.8333 299.526 52.4333 300.059 54.4999C301.793 51.2999 303.926 49.0666 306.459 47.7999C309.059 46.4666 312.359 45.8 316.359 45.8C317.893 45.8 319.526 46.3 321.259 47.3C323.059 48.3 324.593 49.4666 325.859 50.7999C327.059 52.2666 328.059 54.1 328.859 56.3C329.659 58.4333 330.059 60.3666 330.059 62.1C330.059 63.1 329.993 64.7333 329.859 67C329.659 68.8 329.559 70.7 329.559 72.7C329.559 77.3666 330.459 80.2333 332.259 81.3Z" fill="#ECEFF3"/>
<path d="M381.602 63.8999C381.602 66.9666 380.836 69.5666 379.302 71.7C377.769 73.7666 375.736 75.6 373.202 77.2C369.736 79.0666 365.702 80.0333 361.102 80.1C360.836 80.9 360.702 81.7333 360.702 82.6C360.702 83.4 361.136 84 362.002 84.4C362.936 84.7333 364.569 85 366.902 85.2C368.836 85.3333 371.002 85.7666 373.402 86.5C375.869 87.1666 377.802 87.9333 379.202 88.8C380.936 90.0666 382.136 91.4333 382.802 92.9C383.536 94.3666 383.902 96.2 383.902 98.4C383.902 101.267 382.569 103.667 379.902 105.6C377.302 107.6 374.236 109.067 370.702 110C367.169 110.933 364.069 111.4 361.402 111.4C358.202 111.4 355.469 111 353.202 110.2C351.002 109.467 348.902 108.433 346.902 107.1C345.502 106.1 344.402 104.833 343.602 103.3C342.802 101.767 342.402 100.167 342.402 98.5C342.402 96.8333 342.936 95.2333 344.002 93.7C345.136 92.1666 346.502 90.8333 348.102 89.7C349.702 88.6333 351.202 87.9 352.602 87.5C352.069 86.8333 351.669 86.2666 351.402 85.8C351.202 85.2666 351.102 84.6666 351.102 84C351.102 81.7333 351.669 79.8333 352.802 78.2999C349.602 77.2333 347.069 75.3333 345.202 72.6C343.402 69.8666 342.502 66.6666 342.502 62.9999C342.502 60.5999 343.069 58.4333 344.202 56.5C345.336 54.5 346.902 52.5999 348.902 50.7999C352.302 47.7333 357.002 46.1999 363.002 46.1999C363.802 46.1999 364.902 46.3333 366.302 46.6C367.702 46.8666 369.069 47.2333 370.402 47.6999C372.536 46.7666 375.036 45.7999 377.902 44.7999C380.769 43.7999 382.702 43.3 383.702 43.3C385.236 43.3 386.369 43.5666 387.102 44.1C387.902 44.5666 388.302 45.6333 388.302 47.3C388.302 48.8333 387.402 49.9333 385.602 50.6C383.869 51.2666 381.236 51.9 377.702 52.5C380.302 55.6333 381.602 59.4333 381.602 63.8999ZM360.802 71.9C364.669 71.9 367.469 71.1 369.202 69.5C371.002 67.9 371.902 65.5 371.902 62.2999C371.902 57.0333 368.802 54.4 362.602 54.4C360.202 54.4 358.302 54.6666 356.902 55.1999C355.569 55.7333 354.469 56.6333 353.602 57.8999C352.402 59.5 351.802 61.6666 351.802 64.3999C351.802 66.5333 352.669 68.3333 354.402 69.8C356.202 71.2 358.336 71.9 360.802 71.9ZM351.802 99.2C351.802 100.333 352.836 101.3 354.902 102.1C357.036 102.967 359.302 103.4 361.702 103.4C364.369 103.4 367.102 102.9 369.902 101.9C372.769 100.967 374.202 99.7 374.202 98.1C374.202 95.7666 372.136 94.2666 368.002 93.6C366.536 93.3333 364.402 92.8333 361.602 92.1C361.269 92.0333 360.869 91.9333 360.402 91.8C360.002 91.6666 359.569 91.5333 359.102 91.4C357.636 91.9333 356.036 93.0333 354.302 94.7C352.636 96.4333 351.802 97.9333 351.802 99.2Z" fill="#ECEFF3"/>
<path d="M433.384 56.9C433.917 57.8333 434.35 59.2 434.684 61C435.017 62.7333 435.184 64.2999 435.184 65.7C435.184 67.5 434.984 69.5 434.584 71.7C434.184 73.9 433.817 75.5999 433.484 76.7999C428.884 85.2 422.084 89.4 413.084 89.4C409.75 89.4 406.35 88.3 402.884 86.1C399.417 83.9 397.017 81.3666 395.684 78.5C393.884 72.8333 392.984 69.2 392.984 67.6C392.984 64.9333 393.55 62.1 394.684 59.1C395.884 56.1 397.384 53.5 399.184 51.3C400.384 49.7666 402.45 48.4666 405.384 47.4C408.317 46.2666 410.984 45.6999 413.384 45.6999C418.05 45.6999 421.984 46.5999 425.184 48.4C428.45 50.1333 431.184 52.9666 433.384 56.9ZM424.684 73C425.017 72.3333 425.184 70.0999 425.184 66.2999C425.184 64.3666 424.817 62.4666 424.084 60.6C423.417 58.7333 422.417 57.1333 421.084 55.8C420.95 55.6666 420.584 55.4666 419.984 55.1999C419.384 54.8666 418.55 54.5666 417.484 54.3C416.484 53.9666 415.317 53.7999 413.984 53.7999C410.25 53.7999 407.517 55.2999 405.784 58.2999C404.05 61.2999 403.184 64.7 403.184 68.5C403.184 69.1 403.384 70.3333 403.784 72.2C404.184 74.0666 404.484 75.2666 404.684 75.8C405.217 76.7333 406.284 77.8333 407.884 79.1C409.55 80.3 411.35 80.9 413.284 80.9C416.284 80.9 418.65 80.2 420.384 78.8C422.184 77.3333 423.617 75.4 424.684 73Z" fill="#ECEFF3"/>
<path d="M463.026 30.7C463.026 27.8333 465.126 26.3999 469.326 26.3999C471.126 26.3999 474.559 26.4666 479.626 26.6C485.226 26.8666 489.459 27 492.326 27C494.659 27 497.492 26.8666 500.826 26.6C503.092 26.4666 504.526 26.3999 505.126 26.3999C508.792 26.5333 511.892 27.2 514.426 28.4C515.159 28.7333 515.759 29.1333 516.226 29.5999C516.692 30.0666 516.926 30.8333 516.926 31.8999C516.926 33.3666 516.459 34.6333 515.526 35.6999C514.592 36.7 513.459 37.2 512.126 37.2C510.659 37.2 508.526 36.9999 505.726 36.5999C503.259 36.1333 501.092 35.9 499.226 35.9C497.426 35.9 496.059 35.9333 495.126 35.9999C494.926 38.2 494.826 43.4666 494.826 51.8C494.826 61.7333 495.126 71.8 495.726 82L495.926 84.9C495.926 87.6333 494.359 89 491.226 89C488.759 89 487.092 88.4333 486.226 87.3C485.359 86.1 484.926 84.3 484.926 81.9C484.926 77.1666 484.792 71.2666 484.526 64.2C484.259 58.3333 484.126 54.1666 484.126 51.6999C484.126 50.0333 484.326 44.9333 484.726 36.4L473.026 36.4999C469.292 36.4999 466.692 36.1666 465.226 35.5C463.759 34.7666 463.026 33.1666 463.026 30.7Z" fill="#ECEFF3"/>
<path d="M546.48 63.2999C546.68 62.7666 547.38 60.8333 548.58 57.4999C549.847 54.1666 551.014 51.6333 552.08 49.9C553.814 47.1666 555.347 45.8 556.68 45.8C558.547 45.8 559.98 46.1666 560.98 46.9C561.98 47.5666 562.48 48.5333 562.48 49.8C562.48 50.4 562.214 51.2333 561.68 52.3C561.214 53.3666 560.947 54 560.88 54.1999C558.214 60.0666 555.814 66.3666 553.68 73.1L551.58 80.9C550.78 83.4333 549.414 85.5 547.48 87.1C545.547 88.6333 543.28 89.4 540.68 89.4C538.347 89.4 536.18 88.3333 534.18 86.2C532.98 84.3333 531.714 81.9666 530.38 79.1C529.114 76.2333 528.014 73.4333 527.08 70.7L523.58 60.2C522.847 58.1333 522.247 56.3666 521.78 54.9C521.38 53.4333 521.18 52.1 521.18 50.9C521.114 49.5 521.514 48.3666 522.38 47.4999C523.247 46.6333 524.447 46.1999 525.98 46.1999C527.714 46.1999 528.947 46.5666 529.68 47.3C530.414 47.9666 531.08 49.0333 531.68 50.4999C531.947 52.0333 532.68 55.1666 533.88 59.8999L534.58 62.7C535.18 64.9666 535.947 67.2666 536.88 69.6C537.814 71.9333 538.747 74.1666 539.68 76.3C539.547 75.9666 540.014 77.0666 541.08 79.6C541.747 77.6666 542.514 75.3 543.38 72.5L546.48 63.2999Z" fill="#ECEFF3"/>
</svg>
